<?xml version="1.0" encoding="UTF-8"?>
<svg id="Layer_2" data-name="Layer 2" xmlns="http://www.w3.org/2000/svg" width="24" height="24" viewBox="0 0 284 284">
  <defs>
    <style>
      .cls-1 {
        fill: #fefefd;
      }

      .cls-2 {
        fill: #000101;
      }

      .cls-3 {
        fill: #fefefc;
      }
    </style>
  </defs>
  <g id="Layer_1-2" data-name="Layer 1">
    <g id="Generative_Object" data-name="Generative Object">
      <rect class="cls-2" width="284" height="284"/>
      <path class="cls-3" d="M93.16,163.77l.03,49.74c0,1.85,1.14,3.37,2.44,4.06,1.84.98,3.45.58,5.08-.38l21.61-12.75,9.52-5.61.98,11.72,18.88-21.36,2.64-2.95c.71-.79,1.67-1.29,2.61-1.83l6.19-3.54,18.71-10.95,25.71-15.05,18.35-10.74c1.14-.67,1.86-1.35,2.27-2.66.58-1.87.09-4.21-1.74-5.28l-9.2-5.36-9.61-5.53-43.3-25.03-37.12-21.52-27.06-15.63c-1.48-.85-3.17-.85-4.71.04-1.14.67-2.25,2.18-2.25,3.88l-.03,49.76-6.28,4.18-5.64,3.81c-.08.11-.3.06-.23-.15v-57.22c.01-4.77,1.78-9.16,5.14-12.48,3.85-3.81,9.25-5.31,14.57-4.37,2.31.41,4.24,1.18,6.28,2.36l21.61,12.49,27.87,16.08,20.89,12.11,18.91,10.91,15.53,9.02,20.68,12.02c1.47.85,2.74,1.72,3.83,2.99,3.73,4.32,5.22,10.08,3.82,15.65-.64,2.55-1.88,4.82-3.56,6.82-1.23,1.47-2.69,2.59-4.37,3.57l-33.3,19.49-25.73,15.01-9.65,5.61c-.78.46-1.37,1-1.96,1.66l-1.65,1.83-6.64,7.51-29.75,33.9-1.9-20.68-15.25,8.9c-1.43.9-2.8,1.6-4.45,1.94-2.8.81-5.62.75-8.44,0-7.16-1.9-12.11-8.26-12.48-15.68v-58.33s12.15,8.02,12.15,8.02Z"/>
      <polygon class="cls-3" points="125.81 174.31 128.39 166.67 129.69 162.95 132.99 153.24 138.5 136.98 144.59 119.08 148.91 106.28 160.78 106.29 156.43 119 151.74 132.74 147.21 145.98 137.54 174.31 125.81 174.31"/>
      <path class="cls-1" d="M118.91,166.63l-9.32-6.23-25.37-17.15c-1.16-.78-1.94-1.94-1.93-3.31,0-.96.55-1.87,1.29-2.41l2.8-2.07,11.43-7.69,9.07-6.06,12.03-8.12v13.01s-4.73,3.24-4.73,3.24l-4.94,3.39-10.24,6.9,18.96,12.83c.41.34.73.61.95,1.1v12.55Z"/>
      <path class="cls-1" d="M177.28,159.94l-5.38,3.65-4.57,3.04v-12.28c0-.5.22-.95.64-1.24l9.75-6.59,9.39-6.43-7.65-5.19-7.2-4.87-3.88-2.62c-.64-.44-1.06-.79-1.06-1.65l-.03-12.15,3.17,2.15,6.78,4.59,14.3,9.67,10.12,6.93c.68.47,1.19,1.04,1.68,1.66,1.26,1.61.13,3.59-1.51,4.7l-5.54,3.74-7.85,5.33-11.16,7.55Z"/>
    </g>
  </g>
</svg>
