<svg xmlns="http://www.w3.org/2000/svg" width="1280" height="720" viewBox="0 0 1280 720" font-family="Liberation Sans, Arial">
<defs>
    <linearGradient id="bg" x1="0" y1="0" x2="0" y2="1">
      <stop offset="0" stop-color="#F5FAFF"/><stop offset="1" stop-color="#E9F2FB"/></linearGradient>
    <linearGradient id="primary" x1="0" y1="0" x2="1" y2="1">
      <stop offset="0" stop-color="#1D7AB7"/><stop offset="1" stop-color="#155A88"/></linearGradient>
    <linearGradient id="secondary" x1="0" y1="0" x2="0" y2="1">
      <stop offset="0" stop-color="#6FC4EB"/><stop offset="1" stop-color="#3A9FD4"/></linearGradient>
    <linearGradient id="accent" x1="0" y1="0" x2="0" y2="1">
      <stop offset="0" stop-color="#3A9FD4"/><stop offset="1" stop-color="#2B7FB5"/></linearGradient>
    <linearGradient id="indigo" x1="0" y1="0" x2="0" y2="1">
      <stop offset="0" stop-color="#124A73"/><stop offset="1" stop-color="#155A88"/></linearGradient>
    <linearGradient id="green" x1="0" y1="0" x2="0" y2="1">
      <stop offset="0" stop-color="#2F9E72"/><stop offset="1" stop-color="#23895F"/></linearGradient>
    <linearGradient id="violet" x1="0" y1="0" x2="1" y2="1">
      <stop offset="0" stop-color="#7C6FF0"/><stop offset="1" stop-color="#244E78"/></linearGradient>
    <linearGradient id="card" x1="0" y1="0" x2="0" y2="1">
      <stop offset="0" stop-color="#FFFFFF"/><stop offset="1" stop-color="#F0F4F8"/></linearGradient>
    <linearGradient id="accentbar" x1="0" y1="0" x2="1" y2="0">
      <stop offset="0" stop-color="#1D7AB7"/><stop offset="0.6" stop-color="#6FC4EB"/>
      <stop offset="1" stop-color="#3A9FD4"/></linearGradient>
    <filter id="soft" x="-40%" y="-40%" width="180%" height="180%">
      <feDropShadow dx="0" dy="6" stdDeviation="10" flood-color="#1B3A5B" flood-opacity="0.22"/></filter>
    <filter id="softlg" x="-30%" y="-30%" width="160%" height="160%">
      <feDropShadow dx="0" dy="12" stdDeviation="22" flood-color="#14304E" flood-opacity="0.24"/></filter>
    <filter id="chip" x="-60%" y="-60%" width="220%" height="220%">
      <feDropShadow dx="0" dy="3" stdDeviation="5" flood-color="#1B3A5B" flood-opacity="0.20"/></filter>
  </defs>
<rect width="1280" height="720" fill="url(#bg)"/>
<rect x="0" y="0" width="1280" height="6" fill="url(#accentbar)"/>
<text x="56" y="58" font-weight="800" font-size="30" fill="#0E2235">Lenzon — System Architecture</text>
<text x="56" y="86" font-weight="400" font-size="16" fill="#3E5572">From a GitHub repo or pull request to a narrated, animated codebase presentation</text>
<rect x="56" y="100" width="1168" height="262" rx="16" fill="url(#card)" stroke="#D4E3F0" stroke-width="1" filter="url(#softlg)"/>
<path d="M56,116 A16,16 0 0 1 72,100 L1208,100 A16,16 0 0 1 1224,116 L1224,138 L56,138 Z" fill="url(#primary)"/>
<text x="640.0" y="124.6" text-anchor="middle" font-weight="700" font-size="16" fill="#FFFFFF" letter-spacing="0.3">GENERATION PIPELINE</text>
<rect x="74" y="156" width="196" height="100" rx="14" fill="url(#card)" stroke="#D4E3F0" stroke-width="1" filter="url(#soft)"/>
<path d="M74,170 A14,14 0 0 1 88,156 L256,156 A14,14 0 0 1 270,170 L270,163 L74,163 Z" fill="url(#secondary)"/>
<circle cx="98" cy="190" r="13" fill="url(#secondary)"/>
<text x="98" y="195" text-anchor="middle" font-size="13" font-weight="800" fill="#FFFFFF">1</text>
<text x="120" y="195" text-anchor="start" font-size="13.5" font-weight="800" fill="#0E2235">User Input</text>
<text text-anchor="start" font-size="10.3" font-weight="400" fill="#3E5572"><tspan x="90" y="218">GitHub repo / PR URL +</tspan><tspan x="90" y="231">settings: audience, detail,</tspan><tspan x="90" y="244">pace, persona, voice</tspan></text>
<rect x="310" y="156" width="196" height="100" rx="14" fill="url(#card)" stroke="#D4E3F0" stroke-width="1" filter="url(#soft)"/>
<path d="M310,170 A14,14 0 0 1 324,156 L492,156 A14,14 0 0 1 506,170 L506,163 L310,163 Z" fill="url(#primary)"/>
<circle cx="334" cy="190" r="13" fill="url(#primary)"/>
<text x="334" y="195" text-anchor="middle" font-size="13" font-weight="800" fill="#FFFFFF">2</text>
<text x="356" y="195" text-anchor="start" font-size="13.5" font-weight="800" fill="#0E2235">Agent 1a · Triage</text>
<text text-anchor="start" font-size="10.3" font-weight="400" fill="#3E5572"><tspan x="326" y="218">Haiku · reads tree + manifests</tspan><tspan x="326" y="231">→ TriageReport (subsystems,</tspan><tspan x="326" y="244">entry points)</tspan></text>
<rect x="546" y="156" width="196" height="100" rx="14" fill="url(#card)" stroke="#D4E3F0" stroke-width="1" filter="url(#soft)"/>
<path d="M546,170 A14,14 0 0 1 560,156 L728,156 A14,14 0 0 1 742,170 L742,163 L546,163 Z" fill="url(#secondary)"/>
<circle cx="570" cy="190" r="13" fill="url(#secondary)"/>
<text x="570" y="195" text-anchor="middle" font-size="13" font-weight="800" fill="#FFFFFF">3</text>
<text x="592" y="195" text-anchor="start" font-size="13.5" font-weight="800" fill="#0E2235">Triage Modal</text>
<text text-anchor="start" font-size="10.3" font-weight="400" fill="#3E5572"><tspan x="562" y="218">User picks AnalysisMode:</tspan><tspan x="562" y="231">overview, focused-brief,</tspan><tspan x="562" y="244">scorecard, walkthrough</tspan></text>
<rect x="782" y="156" width="196" height="100" rx="14" fill="url(#card)" stroke="#D4E3F0" stroke-width="1" filter="url(#soft)"/>
<path d="M782,170 A14,14 0 0 1 796,156 L964,156 A14,14 0 0 1 978,170 L978,163 L782,163 Z" fill="url(#primary)"/>
<circle cx="806" cy="190" r="13" fill="url(#primary)"/>
<text x="806" y="195" text-anchor="middle" font-size="13" font-weight="800" fill="#FFFFFF">4</text>
<text x="828" y="195" text-anchor="start" font-size="13.5" font-weight="800" fill="#0E2235">Agent 1b · Analysis</text>
<text text-anchor="start" font-size="10.3" font-weight="400" fill="#3E5572"><tspan x="798" y="218">Sonnet · bash + file tools,</tspan><tspan x="798" y="231">scoped by mode → AnalysisJSON</tspan></text>
<rect x="1018" y="156" width="196" height="100" rx="14" fill="url(#card)" stroke="#D4E3F0" stroke-width="1" filter="url(#soft)"/>
<path d="M1018,170 A14,14 0 0 1 1032,156 L1200,156 A14,14 0 0 1 1214,170 L1214,163 L1018,163 Z" fill="url(#indigo)"/>
<circle cx="1042" cy="190" r="13" fill="url(#indigo)"/>
<text x="1042" y="195" text-anchor="middle" font-size="13" font-weight="800" fill="#FFFFFF">5</text>
<text x="1064" y="195" text-anchor="start" font-size="13.5" font-weight="800" fill="#0E2235">Agent 2 · Producer</text>
<text text-anchor="start" font-size="10.3" font-weight="400" fill="#3E5572"><tspan x="1034" y="218">Messages API →</tspan><tspan x="1034" y="231">PresentationScript (scenes,</tspan><tspan x="1034" y="244">beats, voice)</tspan></text>
<line x1="273" y1="206.0" x2="298.0" y2="206.0" stroke="#155A88" stroke-width="3" stroke-linecap="round"/>
<polygon points="307.0,206.0 298.0,210.9 298.0,201.1" fill="#155A88"/>
<line x1="509" y1="206.0" x2="534.0" y2="206.0" stroke="#155A88" stroke-width="3" stroke-linecap="round"/>
<polygon points="543.0,206.0 534.0,210.9 534.0,201.1" fill="#155A88"/>
<line x1="745" y1="206.0" x2="770.0" y2="206.0" stroke="#155A88" stroke-width="3" stroke-linecap="round"/>
<polygon points="779.0,206.0 770.0,210.9 770.0,201.1" fill="#155A88"/>
<line x1="981" y1="206.0" x2="1006.0" y2="206.0" stroke="#155A88" stroke-width="3" stroke-linecap="round"/>
<polygon points="1015.0,206.0 1006.0,210.9 1006.0,201.1" fill="#155A88"/>
<line x1="1116.0" y1="256" x2="1106.7616595969803" y2="267.08600848362363" stroke="#155A88" stroke-width="3" stroke-linecap="round"/>
<polygon points="1101.0,274.0 1103.0,263.9 1110.6,270.3" fill="#155A88"/>
<rect x="988" y="274" width="226" height="72" rx="14" fill="url(#card)" stroke="#D4E3F0" stroke-width="1" filter="url(#soft)"/>
<path d="M988,288 A14,14 0 0 1 1002,274 L1200,274 A14,14 0 0 1 1214,288 L1214,281 L988,281 Z" fill="url(#secondary)"/>
<circle cx="1012" cy="308" r="13" fill="url(#secondary)"/>
<text x="1012" y="313" text-anchor="middle" font-size="13" font-weight="800" fill="#FFFFFF">6</text>
<text x="1034" y="313" text-anchor="start" font-size="13.5" font-weight="800" fill="#0E2235">Script Player</text>
<text text-anchor="start" font-size="10.3" font-weight="400" fill="#3E5572"><tspan x="1004" y="336">Client runtime — drives</tspan><tspan x="1004" y="349">Presenter, schedules beats,</tspan><tspan x="1004" y="362">syncs audio</tspan></text>
<rect x="74" y="282" width="132" height="58" rx="11" fill="url(#card)" stroke="#D4E3F0" stroke-width="1" filter="url(#soft)"/>
<rect x="74" y="282" width="4.5" height="58" rx="2.25" fill="url(#primary)"/>
<text x="89" y="306" text-anchor="start" font-size="12" font-weight="800" fill="#0E2235">Canvas</text>
<text x="89" y="324" text-anchor="start" font-size="9.6" font-weight="400" fill="#3E5572">Stage · TextBox · fx</text>
<rect x="224" y="282" width="132" height="58" rx="11" fill="url(#card)" stroke="#D4E3F0" stroke-width="1" filter="url(#soft)"/>
<rect x="224" y="282" width="4.5" height="58" rx="2.25" fill="url(#primary)"/>
<text x="239" y="306" text-anchor="start" font-size="12" font-weight="800" fill="#0E2235">DOM Layer</text>
<text x="239" y="324" text-anchor="start" font-size="9.6" font-weight="400" fill="#3E5572">code · cloud · grid</text>
<rect x="374" y="282" width="132" height="58" rx="11" fill="url(#card)" stroke="#D4E3F0" stroke-width="1" filter="url(#soft)"/>
<rect x="374" y="282" width="4.5" height="58" rx="2.25" fill="url(#primary)"/>
<text x="389" y="306" text-anchor="start" font-size="12" font-weight="800" fill="#0E2235">3D Layer</text>
<text x="389" y="324" text-anchor="start" font-size="9.6" font-weight="400" fill="#3E5572">Stage3D graphs</text>
<rect x="524" y="282" width="132" height="58" rx="11" fill="url(#card)" stroke="#D4E3F0" stroke-width="1" filter="url(#soft)"/>
<rect x="524" y="282" width="4.5" height="58" rx="2.25" fill="url(#secondary)"/>
<text x="539" y="306" text-anchor="start" font-size="12" font-weight="800" fill="#0E2235">Audio (TTS)</text>
<text x="539" y="324" text-anchor="start" font-size="9.6" font-weight="400" fill="#3E5572">ElevenLabs / Kokoro</text>
<line x1="988" y1="311" x2="669.0" y2="311.0" stroke="#155A88" stroke-width="3" stroke-linecap="round"/>
<polygon points="660.0,311.0 669.0,306.1 669.0,315.9" fill="#155A88"/>
<text x="820" y="300" text-anchor="middle" font-size="10" font-weight="400" fill="#7A8BA2">renders scenes</text>
<rect x="56" y="388" width="1168" height="262" rx="16" fill="url(#card)" stroke="#D4E3F0" stroke-width="1" filter="url(#softlg)"/>
<path d="M56,404 A16,16 0 0 1 72,388 L1208,388 A16,16 0 0 1 1224,404 L1224,426 L56,426 Z" fill="url(#indigo)"/>
<text x="640.0" y="412.25" text-anchor="middle" font-weight="700" font-size="15" fill="#FFFFFF" letter-spacing="0.3">INFRASTRUCTURE SUBSTRATE · VERCEL ORCHESTRATES, AWS DOES THE HEAVY LIFTING</text>
<rect x="74" y="452" width="270" height="78" rx="12" fill="url(#card)" stroke="#D4E3F0" stroke-width="1" filter="url(#soft)"/>
<path d="M74,464 A12,12 0 0 1 86,452 L332,452 A12,12 0 0 1 344,464 L344,459 L74,459 Z" fill="url(#primary)"/>
<text x="90" y="482" text-anchor="start" font-size="13" font-weight="800" fill="#0E2235">Vercel — Next.js</text>
<text text-anchor="start" font-size="9.6" font-weight="400" fill="#3E5572"><tspan x="90" y="500">OAuth · orchestration · agent calls;</tspan><tspan x="90" y="512">brokers jobs + presigned URLs (never git</tspan><tspan x="90" y="524">clone)</tspan></text>
<rect x="74" y="542" width="270" height="74" rx="12" fill="url(#card)" stroke="#D4E3F0" stroke-width="1" filter="url(#soft)"/>
<path d="M74,554 A12,12 0 0 1 86,542 L332,542 A12,12 0 0 1 344,554 L344,549 L74,549 Z" fill="url(#secondary)"/>
<text x="90" y="572" text-anchor="start" font-size="13" font-weight="800" fill="#0E2235">Postgres (RDS) · Prisma</text>
<text text-anchor="start" font-size="9.6" font-weight="400" fill="#3E5572"><tspan x="90" y="590">analyses, user settings, encrypted</tspan><tspan x="90" y="602">provider tokens, run records</tspan></text>
<line x1="209" y1="530" x2="209.0" y2="535.0" stroke="#155A88" stroke-width="2.5" stroke-linecap="round"/>
<polygon points="209.0,542.0 205.2,535.0 212.8,535.0" fill="#155A88"/>
<rect x="400" y="448" width="814" height="180" rx="14" fill="url(#card)" stroke="#9FC4E0" stroke-width="1.5" filter="url(#soft)"/>
<text x="420" y="480" text-anchor="start" font-size="14" font-weight="800" fill="#124A73">AWS · us-east-2</text>
<text x="560" y="480" text-anchor="start" font-size="10.5" font-weight="400" fill="#3E5572">HMAC handoff: API Gateway + Lambda  ·  SQS queues + EventBridge → Fargate</text>
<rect x="420" y="502" width="372" height="108" rx="11" fill="url(#card)" stroke="#D4E3F0" stroke-width="1" filter="url(#soft)"/>
<path d="M420,513 A11,11 0 0 1 431,502 L781,502 A11,11 0 0 1 792,513 L792,508 L420,508 Z" fill="url(#primary)"/>
<text x="436" y="532" text-anchor="start" font-size="12.5" font-weight="800" fill="#0E2235">Fargate clone worker</text>
<text text-anchor="start" font-size="9.8" font-weight="400" fill="#3E5572"><tspan x="436" y="552">SQS-driven · git clone with OAuth /</tspan><tspan x="436" y="565">GitHub-App token → tar → S3 → short-lived</tspan><tspan x="436" y="578">presigned URL the agent curls</tspan></text>
<rect x="820" y="502" width="380" height="108" rx="11" fill="url(#card)" stroke="#D4E3F0" stroke-width="1" filter="url(#soft)"/>
<path d="M820,513 A11,11 0 0 1 831,502 L1189,502 A11,11 0 0 1 1200,513 L1200,508 L820,508 Z" fill="url(#primary)"/>
<text x="836" y="532" text-anchor="start" font-size="12.5" font-weight="800" fill="#0E2235">Fargate render worker</text>
<text text-anchor="start" font-size="9.8" font-weight="400" fill="#3E5572"><tspan x="836" y="552">Playwright + ffmpeg → MP4 → S3; drives the</tspan><tspan x="836" y="565">async Pipeline API (repo → video) for batch</tspan><tspan x="836" y="578">renders</tspan></text>
<line x1="344" y1="500" x2="391.0" y2="500.0" stroke="#155A88" stroke-width="3" stroke-linecap="round"/>
<polygon points="400.0,500.0 391.0,504.9 391.0,495.1" fill="#155A88"/>
<text x="372" y="444" text-anchor="middle" font-size="9.5" font-weight="400" fill="#7A8BA2">enqueue</text>
<line x1="200" y1="362" x2="200.0" y2="443.0" stroke="#3A9FD4" stroke-width="2.5" stroke-dasharray="6 6" stroke-linecap="round"/>
<polygon points="200.0,452.0 195.1,443.0 204.9,443.0" fill="#3A9FD4"/>
<text x="216" y="379" text-anchor="start" font-size="10" font-weight="400" fill="#1B3A52">pipeline orchestrated on Vercel; clone &amp; render offloaded to AWS</text>
<line x1="56" y1="686" x2="1224" y2="686" stroke="#D4E3F0" stroke-width="1"/>
<circle cx="68" cy="708" r="9" fill="url(#primary)"/>
<circle cx="68" cy="708" r="3.4" fill="#FFFFFF"/>
<text x="84" y="713" font-weight="800" font-size="15" fill="#0E2235">Lenzon</text>
<text x="148" y="713" font-size="12.5" fill="#7A8BA2">Animated codebase explainers</text>
<rect x="1042" y="699" width="9" height="9" rx="2" fill="url(#accent)"/>
<text x="1224" y="713" text-anchor="end" font-weight="700" font-size="12.5" fill="#2B7FB5">lenzon.ai</text>
</svg>